<svg width="24" height="24" viewBox="0 0 24 24" fill="none" xmlns="http://www.w3.org/2000/svg">
<path d="M12 21C16.9706 21 21 16.9706 21 12C21 7.02944 16.9706 3 12 3C7.02944 3 3 7.02944 3 12C3 16.9706 7.02944 21 12 21Z" stroke="#EAB8B9" stroke-width="1.2" stroke-linecap="round" stroke-linejoin="round"/>
<path d="M6.65625 19.2469C7.99239 17.0357 9.87666 15.2068 12.1267 13.9373C14.3768 12.6677 16.9165 12.0004 19.5 12C20.0063 12 20.5031 12.0281 21 12.075" stroke="#EAB8B9" stroke-width="1.2" stroke-linecap="round" stroke-linejoin="round"/>
<path d="M17.6251 4.97803C16.2194 6.70435 14.4467 8.0957 12.4358 9.05088C10.4248 10.0061 8.22633 10.5011 6.0001 10.4999C5.05343 10.4988 4.10885 10.411 3.17822 10.2374" stroke="#EAB8B9" stroke-width="1.2" stroke-linecap="round" stroke-linejoin="round"/>
<path d="M8.05322 3.90918C10.8437 5.55413 13.0288 8.05567 14.2838 11.0419C15.5388 14.0282 15.7966 17.3397 15.0188 20.4842" stroke="#EAB8B9" stroke-width="1.2" stroke-linecap="round" stroke-linejoin="round"/>
</svg>
