<svg width="27" height="27" viewBox="0 0 27 27" fill="none" xmlns="http://www.w3.org/2000/svg">
<path d="M16.4522 5.59315C16.4522 3.35877 18.0293 1.50017 19.9049 1.53064C20.5617 1.53968 21.2023 1.77451 21.7498 2.20692C22.2973 2.63933 22.7283 3.25091 22.9909 3.96815H26.0003L23.2467 7.24862C23.069 10.5439 21.8446 13.6349 19.8223 15.8931C17.8001 18.1513 15.1319 19.4073 12.3602 19.4057C9.63212 19.4057 8.95012 18.1869 8.95012 18.1869C8.95012 18.1869 11.6781 16.9682 13.0422 14.5307C13.0422 14.5307 7.5861 11.2807 8.95012 2.34314C8.95012 2.34314 12.3602 6.40565 16.4522 7.21815V5.59315Z" stroke="#EAB8B9" stroke-width="1.2" stroke-linecap="round" stroke-linejoin="round"/>
</svg>
